# xmcd CD database file
#
# Track frame offsets:
#	150
#	21252
#	49919
#	68450
#	95849
#	109596
#	137320
#	160344
#	184390
#	203144
#	226241
#
# Disc length: 3384 seconds
#
# Revision: 0
# Processed by: cddbd v1.5.2PL0 Copyright (c) Steve Scherf et al.
# Submitted via: CDex 1.51
#
DISCID=900d360b
DTITLE=Zzebra - Panic
DYEAR=1975
DGENRE=Jazz
TTITLE0=Panic
TTITLE1=You've Lost That Lovin' Feeling
TTITLE2=Karrola
TTITLE3=Liamo
TTITLE4=Death By Drowning
TTITLE5=Tree
TTITLE6=Put A Light On Me
TTITLE7=La Si Si-La So So
TTITLE8=Karrola (Alternate Mix)(Bonus)
TTITLE9=Put A Light On Me (Alternate Mix w. Jeff Beck)(Bonus)
TTITLE10=Liamo (live)(Bonus)
EXTD=YEAR: 1975
EXTT0=
EXTT1=
EXTT2=
EXTT3=
EXTT4=
EXTT5=
EXTT6=
EXTT7=
EXTT8=
EXTT9=
EXTT10=
PLAYORDER=
